{
  "accessors": [
    {
      "bufferView": 2,
      "componentType": 5126,
      "count": 1179,
      "max": [
        3.0420680046081543,
        5.040602207183838,
        10.065973281860352
      ],
      "min": [
        -5.137579917907715,
        -3.4719009399414063,
        4.230212211608887
      ],
      "type": "VEC3"
    },
    {
      "bufferView": 2,
      "byteOffset": 14148,
      "componentType": 5126,
      "count": 1179,
      "max": [
        0.9692436456680298,
        0.9525496363639832,
        0.9899352192878723
      ],
      "min": [
        -0.9692447781562805,
        -0.9562864899635315,
        -0.9899346232414246
      ],
      "type": "VEC3"
    },
    {
      "bufferView": 1,
      "componentType": 5126,
      "count": 1179,
      "max": [
        1.0004889965057373,
        1.000978946685791
      ],
      "min": [
        -0.0005760000203736126,
        -3.999999989900971e-06
      ],
      "type": "VEC2"
    },
    {
      "bufferView": 0,
      "componentType": 5125,
      "count": 1770,
      "type": "SCALAR"
    },
    {
      "bufferView": 2,
      "byteOffset": 28296,
      "componentType": 5126,
      "count": 144,
      "max": [
        2.063788890838623,
        3.2191390991210938,
        9.657785415649414
      ],
      "min": [
        0.42787501215934753,
        1.8410279750823975,
        8.713719367980957
      ],
      "type": "VEC3"
    },
    {
      "bufferView": 2,
      "byteOffset": 30024,
      "componentType": 5126,
      "count": 144,
      "max": [
        0.7282542586326599,
        0.37506794929504395,
        0.8820507526397705
      ],
      "min": [
        -0.6742050051689148,
        -0.8504837155342102,
        -0.07477101683616638
      ],
      "type": "VEC3"
    },
    {
      "bufferView": 1,
      "byteOffset": 9432,
      "componentType": 5126,
      "count": 144,
      "max": [
        1.0,
        0.8752800226211548
      ],
      "min": [
        0.0,
        0.0
      ],
      "type": "VEC2"
    },
    {
      "bufferView": 0,
      "byteOffset": 7080,
      "componentType": 5125,
      "count": 216,
      "type": "SCALAR"
    },
    {
      "bufferView": 2,
      "byteOffset": 31752,
      "componentType": 5126,
      "count": 7291,
      "max": [
        7.019824981689453,
        5.513126850128174,
        10.456910133361816
      ],
      "min": [
        -5.137579917907715,
        -8.068938255310059,
        1.1328359842300415
      ],
      "type": "VEC3"
    },
    {
      "bufferView": 2,
      "byteOffset": 119244,
      "componentType": 5126,
      "count": 7291,
      "max": [
        0.9995350241661072,
        0.9981920123100281,
        0.9912838935852051
      ],
      "min": [
        -0.9995350241661072,
        -0.9977537393569946,
        -0.9852602481842041
      ],
      "type": "VEC3"
    },
    {
      "bufferView": 1,
      "byteOffset": 10584,
      "componentType": 5126,
      "count": 7291,
      "max": [
        1.0095479488372803,
        1.0
      ],
      "min": [
        -0.009548000060021877,
        0.0
      ],
      "type": "VEC2"
    },
    {
      "bufferView": 0,
      "byteOffset": 7944,
      "componentType": 5125,
      "count": 12252,
      "type": "SCALAR"
    },
    {
      "bufferView": 2,
      "byteOffset": 206736,
      "componentType": 5126,
      "count": 5582,
      "max": [
        8.61100959777832,
        3.048396110534668,
        8.532596588134766
      ],
      "min": [
        1.476912021636963,
        -1.654420018196106,
        4.682671070098877
      ],
      "type": "VEC3"
    },
    {
      "bufferView": 2,
      "byteOffset": 273720,
      "componentType": 5126,
      "count": 5582,
      "max": [
        0.8816400170326233,
        0.8343021869659424,
        0.9151747822761536
      ],
      "min": [
        -0.7678071856498718,
        -0.8935171365737915,
        -0.9901841282844543
      ],
      "type": "VEC3"
    },
    {
      "bufferView": 1,
      "byteOffset": 68912,
      "componentType": 5126,
      "count": 5582,
      "max": [
        0.875,
        1.0
      ],
      "min": [
        0.125,
        0.0
      ],
      "type": "VEC2"
    },
    {
      "bufferView": 0,
      "byteOffset": 56952,
      "componentType": 5125,
      "count": 8376,
      "type": "SCALAR"
    }
  ],
  "asset": {
    "extras": {
      "author": "Hadrien59 (https://sketchfab.com/Hadrien59)",
      "license": "CC-BY-4.0 (http://creativecommons.org/licenses/by/4.0/)",
      "source": "https://sketchfab.com/3d-models/swiss-army-knife-bf9e6f7de2a24d169f3e6236ab3096b4",
      "title": "Swiss Army Knife"
    },
    "generator": "Sketchfab-12.65.0",
    "version": "2.0"
  },
  "bufferViews": [
    {
      "buffer": 0,
      "byteLength": 90456,
      "name": "floatBufferViews",
      "target": 34963
    },
    {
      "buffer": 0,
      "byteLength": 113568,
      "byteOffset": 90456,
      "byteStride": 8,
      "name": "floatBufferViews",
      "target": 34962
    },
    {
      "buffer": 0,
      "byteLength": 340704,
      "byteOffset": 204024,
      "byteStride": 12,
      "name": "floatBufferViews",
      "target": 34962
    }
  ],
  "buffers": [
    {
      "byteLength": 544728,
      "uri": "sak.bin"
    }
  ],
  "extensionsUsed": [
    "KHR_materials_clearcoat"
  ],
  "materials": [
    {
      "doubleSided": true,
      "extensions": {
        "KHR_materials_clearcoat": {
          "clearcoatFactor": 1.0,
          "clearcoatRoughnessFactor": 0.04
        }
      },
      "name": "blinn1SG",
      "pbrMetallicRoughness": {
        "baseColorFactor": [
          0.75,
          0.75,
          0.75,
          1.0
        ],
        "metallicFactor": 0.935175624,
        "roughnessFactor": 0.1
      }
    },
    {
      "doubleSided": true,
      "name": "blinn2SG",
      "pbrMetallicRoughness": {
        "baseColorFactor": [
          0.2823275585,
          0.0,
          0.0,
          1.0
        ],
        "metallicFactor": 0.0,
        "roughnessFactor": 0.6
      }
    },
    {
      "doubleSided": true,
      "name": "lambert2SG",
      "pbrMetallicRoughness": {
        "metallicFactor": 0.0,
        "roughnessFactor": 0.5
      }
    }
  ],
  "meshes": [
    {
      "name": "Object_0",
      "primitives": [
        {
          "attributes": {
            "NORMAL": 1,
            "POSITION": 0,
            "TEXCOORD_0": 2
          },
          "indices": 3,
          "material": 1,
          "mode": 4
        }
      ]
    },
    {
      "name": "Object_1",
      "primitives": [
        {
          "attributes": {
            "NORMAL": 5,
            "POSITION": 4,
            "TEXCOORD_0": 6
          },
          "indices": 7,
          "material": 2,
          "mode": 4
        }
      ]
    },
    {
      "name": "Object_2",
      "primitives": [
        {
          "attributes": {
            "NORMAL": 9,
            "POSITION": 8,
            "TEXCOORD_0": 10
          },
          "indices": 11,
          "material": 0,
          "mode": 4
        }
      ]
    },
    {
      "name": "Object_3",
      "primitives": [
        {
          "attributes": {
            "NORMAL": 13,
            "POSITION": 12,
            "TEXCOORD_0": 14
          },
          "indices": 15,
          "material": 0,
          "mode": 4
        }
      ]
    }
  ],
  "nodes": [
    {
      "children": [
        1
      ],
      "matrix": [
        1.0,
        0.0,
        0.0,
        0.0,
        0.0,
        2.220446049250313e-16,
        -1.0,
        0.0,
        0.0,
        1.0,
        2.220446049250313e-16,
        0.0,
        0.0,
        0.0,
        0.0,
        1.0
      ],
      "name": "Sketchfab_model"
    },
    {
      "children": [
        2,
        3,
        4,
        5
      ],
      "name": "swissKinfe05.obj.cleaner.materialmerger.gles"
    },
    {
      "mesh": 0,
      "name": "Object_2"
    },
    {
      "mesh": 1,
      "name": "Object_3"
    },
    {
      "mesh": 2,
      "name": "Object_4"
    },
    {
      "mesh": 3,
      "name": "Object_5"
    }
  ],
  "scene": 0,
  "scenes": [
    {
      "name": "Sketchfab_Scene",
      "nodes": [
        0
      ]
    }
  ]
}
